<mxfile host="app.diagrams.net" modified="2020-12-30T08:53:20.608Z" agent="5.0 (Windows NT 10.0; Win64; x64) AppleWebKit/537.36 (KHTML, like Gecko) Chrome/87.0.4280.88 Safari/537.36" etag="AYqEJdnkJcgfsZOgaJ0s" version="14.0.1" type="github" pages="2">
  <diagram id="xcT45KHdyDX67nXKkzMG" name="Page-1">
    <mxGraphModel dx="1552" dy="811" grid="1" gridSize="10" guides="1" tooltips="1" connect="1" arrows="1" fold="1" page="1" pageScale="1" pageWidth="1920" pageHeight="1200" math="0" shadow="0">
      <root>
        <mxCell id="0" />
        <mxCell id="1" parent="0" />
        <mxCell id="sQVnSLR_GBX4JWcvfMMG-1" value="&lt;font style=&quot;font-size: 25px&quot;&gt;Huruf&lt;/font&gt;" style="rounded=0;whiteSpace=wrap;html=1;strokeWidth=5;fillColor=#f8cecc;strokeColor=#23A9B8;" vertex="1" parent="1">
          <mxGeometry x="280" y="260" width="210" height="60" as="geometry" />
        </mxCell>
        <mxCell id="sQVnSLR_GBX4JWcvfMMG-2" value="&lt;span style=&quot;font-size: 25px&quot;&gt;Frekuensi&lt;/span&gt;" style="rounded=0;whiteSpace=wrap;html=1;strokeWidth=5;fillColor=#f8cecc;strokeColor=#23A9B8;" vertex="1" parent="1">
          <mxGeometry x="490" y="260" width="210" height="60" as="geometry" />
        </mxCell>
        <mxCell id="sQVnSLR_GBX4JWcvfMMG-3" value="&lt;font style=&quot;font-size: 25px&quot;&gt;E&lt;/font&gt;" style="rounded=0;whiteSpace=wrap;html=1;strokeWidth=5;fillColor=#f8cecc;strokeColor=#23A9B8;" vertex="1" parent="1">
          <mxGeometry x="280" y="320" width="210" height="60" as="geometry" />
        </mxCell>
        <mxCell id="sQVnSLR_GBX4JWcvfMMG-4" value="" style="rounded=0;whiteSpace=wrap;html=1;strokeWidth=5;fillColor=#f8cecc;strokeColor=#23A9B8;" vertex="1" parent="1">
          <mxGeometry x="490" y="320" width="210" height="60" as="geometry" />
        </mxCell>
        <mxCell id="sQVnSLR_GBX4JWcvfMMG-5" value="&lt;font style=&quot;font-size: 25px&quot;&gt;I&lt;/font&gt;" style="rounded=0;whiteSpace=wrap;html=1;strokeWidth=5;fillColor=#f8cecc;strokeColor=#23A9B8;" vertex="1" parent="1">
          <mxGeometry x="280" y="380" width="210" height="60" as="geometry" />
        </mxCell>
        <mxCell id="sQVnSLR_GBX4JWcvfMMG-6" value="" style="rounded=0;whiteSpace=wrap;html=1;strokeWidth=5;fillColor=#f8cecc;strokeColor=#23A9B8;" vertex="1" parent="1">
          <mxGeometry x="490" y="380" width="210" height="60" as="geometry" />
        </mxCell>
        <mxCell id="sQVnSLR_GBX4JWcvfMMG-7" value="&lt;font style=&quot;font-size: 25px&quot;&gt;K&lt;/font&gt;" style="rounded=0;whiteSpace=wrap;html=1;strokeWidth=5;fillColor=#f8cecc;strokeColor=#23A9B8;" vertex="1" parent="1">
          <mxGeometry x="280" y="440" width="210" height="60" as="geometry" />
        </mxCell>
        <mxCell id="sQVnSLR_GBX4JWcvfMMG-8" value="" style="rounded=0;whiteSpace=wrap;html=1;strokeWidth=5;fillColor=#f8cecc;strokeColor=#23A9B8;" vertex="1" parent="1">
          <mxGeometry x="490" y="440" width="210" height="60" as="geometry" />
        </mxCell>
        <mxCell id="sQVnSLR_GBX4JWcvfMMG-9" value="&lt;font style=&quot;font-size: 25px&quot;&gt;L&lt;/font&gt;" style="rounded=0;whiteSpace=wrap;html=1;strokeWidth=5;fillColor=#f8cecc;strokeColor=#23A9B8;" vertex="1" parent="1">
          <mxGeometry x="280" y="500" width="210" height="60" as="geometry" />
        </mxCell>
        <mxCell id="sQVnSLR_GBX4JWcvfMMG-10" value="" style="rounded=0;whiteSpace=wrap;html=1;strokeWidth=5;fillColor=#f8cecc;strokeColor=#23A9B8;" vertex="1" parent="1">
          <mxGeometry x="490" y="500" width="210" height="60" as="geometry" />
        </mxCell>
        <mxCell id="sQVnSLR_GBX4JWcvfMMG-11" value="&lt;font style=&quot;font-size: 25px&quot;&gt;M&lt;/font&gt;" style="rounded=0;whiteSpace=wrap;html=1;strokeWidth=5;fillColor=#f8cecc;strokeColor=#23A9B8;" vertex="1" parent="1">
          <mxGeometry x="280" y="560" width="210" height="60" as="geometry" />
        </mxCell>
        <mxCell id="sQVnSLR_GBX4JWcvfMMG-12" value="" style="rounded=0;whiteSpace=wrap;html=1;strokeWidth=5;fillColor=#f8cecc;strokeColor=#23A9B8;" vertex="1" parent="1">
          <mxGeometry x="490" y="560" width="210" height="60" as="geometry" />
        </mxCell>
        <mxCell id="sQVnSLR_GBX4JWcvfMMG-13" value="&lt;span style=&quot;font-size: 25px&quot;&gt;O&lt;/span&gt;" style="rounded=0;whiteSpace=wrap;html=1;strokeWidth=5;fillColor=#f8cecc;strokeColor=#23A9B8;" vertex="1" parent="1">
          <mxGeometry x="280" y="620" width="210" height="60" as="geometry" />
        </mxCell>
        <mxCell id="sQVnSLR_GBX4JWcvfMMG-14" value="" style="rounded=0;whiteSpace=wrap;html=1;strokeWidth=5;fillColor=#f8cecc;strokeColor=#23A9B8;" vertex="1" parent="1">
          <mxGeometry x="490" y="620" width="210" height="60" as="geometry" />
        </mxCell>
        <mxCell id="sQVnSLR_GBX4JWcvfMMG-15" value="&lt;font style=&quot;font-size: 25px&quot;&gt;P&lt;/font&gt;" style="rounded=0;whiteSpace=wrap;html=1;strokeWidth=5;fillColor=#f8cecc;strokeColor=#23A9B8;" vertex="1" parent="1">
          <mxGeometry x="280" y="680" width="210" height="60" as="geometry" />
        </mxCell>
        <mxCell id="sQVnSLR_GBX4JWcvfMMG-16" value="" style="rounded=0;whiteSpace=wrap;html=1;strokeWidth=5;fillColor=#f8cecc;strokeColor=#23A9B8;" vertex="1" parent="1">
          <mxGeometry x="490" y="680" width="210" height="60" as="geometry" />
        </mxCell>
        <mxCell id="sQVnSLR_GBX4JWcvfMMG-17" value="&lt;font style=&quot;font-size: 25px&quot;&gt;R&lt;/font&gt;" style="rounded=0;whiteSpace=wrap;html=1;strokeWidth=5;fillColor=#f8cecc;strokeColor=#23A9B8;" vertex="1" parent="1">
          <mxGeometry x="280" y="740" width="210" height="60" as="geometry" />
        </mxCell>
        <mxCell id="sQVnSLR_GBX4JWcvfMMG-18" value="" style="rounded=0;whiteSpace=wrap;html=1;strokeWidth=5;fillColor=#f8cecc;strokeColor=#23A9B8;" vertex="1" parent="1">
          <mxGeometry x="490" y="740" width="210" height="60" as="geometry" />
        </mxCell>
        <mxCell id="sQVnSLR_GBX4JWcvfMMG-19" value="&lt;font style=&quot;font-size: 25px&quot;&gt;T&lt;/font&gt;" style="rounded=0;whiteSpace=wrap;html=1;strokeWidth=5;fillColor=#f8cecc;strokeColor=#23A9B8;" vertex="1" parent="1">
          <mxGeometry x="280" y="800" width="210" height="60" as="geometry" />
        </mxCell>
        <mxCell id="sQVnSLR_GBX4JWcvfMMG-20" value="" style="rounded=0;whiteSpace=wrap;html=1;strokeWidth=5;fillColor=#f8cecc;strokeColor=#23A9B8;" vertex="1" parent="1">
          <mxGeometry x="490" y="800" width="210" height="60" as="geometry" />
        </mxCell>
        <mxCell id="sQVnSLR_GBX4JWcvfMMG-21" value="&lt;font style=&quot;font-size: 25px&quot;&gt;U&lt;/font&gt;" style="rounded=0;whiteSpace=wrap;html=1;strokeWidth=5;fillColor=#f8cecc;strokeColor=#23A9B8;" vertex="1" parent="1">
          <mxGeometry x="280" y="860" width="210" height="60" as="geometry" />
        </mxCell>
        <mxCell id="sQVnSLR_GBX4JWcvfMMG-22" value="" style="rounded=0;whiteSpace=wrap;html=1;strokeWidth=5;fillColor=#f8cecc;strokeColor=#23A9B8;" vertex="1" parent="1">
          <mxGeometry x="490" y="860" width="210" height="60" as="geometry" />
        </mxCell>
        <mxCell id="sQVnSLR_GBX4JWcvfMMG-23" value="&lt;font style=&quot;font-size: 25px&quot;&gt;Huruf&lt;/font&gt;" style="rounded=0;whiteSpace=wrap;html=1;strokeWidth=5;fillColor=#f8cecc;strokeColor=#23A9B8;" vertex="1" parent="1">
          <mxGeometry x="370" y="1210" width="210" height="60" as="geometry" />
        </mxCell>
        <mxCell id="sQVnSLR_GBX4JWcvfMMG-24" value="&lt;span style=&quot;font-size: 25px&quot;&gt;Frekuensi&lt;/span&gt;" style="rounded=0;whiteSpace=wrap;html=1;strokeWidth=5;fillColor=#f8cecc;strokeColor=#23A9B8;" vertex="1" parent="1">
          <mxGeometry x="580" y="1210" width="210" height="60" as="geometry" />
        </mxCell>
        <mxCell id="sQVnSLR_GBX4JWcvfMMG-25" value="&lt;font style=&quot;font-size: 25px&quot;&gt;E&lt;/font&gt;" style="rounded=0;whiteSpace=wrap;html=1;strokeWidth=5;fillColor=#f8cecc;strokeColor=#23A9B8;" vertex="1" parent="1">
          <mxGeometry x="370" y="1270" width="210" height="60" as="geometry" />
        </mxCell>
        <mxCell id="sQVnSLR_GBX4JWcvfMMG-26" value="&lt;span style=&quot;font-size: 25px&quot;&gt;1&lt;/span&gt;" style="rounded=0;whiteSpace=wrap;html=1;strokeWidth=5;fillColor=#f8cecc;strokeColor=#23A9B8;" vertex="1" parent="1">
          <mxGeometry x="580" y="1270" width="210" height="60" as="geometry" />
        </mxCell>
        <mxCell id="sQVnSLR_GBX4JWcvfMMG-27" value="&lt;font style=&quot;font-size: 25px&quot;&gt;I&lt;/font&gt;" style="rounded=0;whiteSpace=wrap;html=1;strokeWidth=5;fillColor=#f8cecc;strokeColor=#23A9B8;" vertex="1" parent="1">
          <mxGeometry x="370" y="1330" width="210" height="60" as="geometry" />
        </mxCell>
        <mxCell id="sQVnSLR_GBX4JWcvfMMG-28" value="&#xa;&#xa;&lt;span style=&quot;color: rgb(0, 0, 0); font-family: helvetica; font-size: 25px; font-style: normal; font-weight: 400; letter-spacing: normal; text-align: center; text-indent: 0px; text-transform: none; word-spacing: 0px; background-color: rgb(248, 249, 250); display: inline; float: none;&quot;&gt;1&lt;/span&gt;&#xa;&#xa;" style="rounded=0;whiteSpace=wrap;html=1;strokeWidth=5;fillColor=#f8cecc;strokeColor=#23A9B8;" vertex="1" parent="1">
          <mxGeometry x="580" y="1330" width="210" height="60" as="geometry" />
        </mxCell>
        <mxCell id="sQVnSLR_GBX4JWcvfMMG-29" value="&lt;font style=&quot;font-size: 25px&quot;&gt;K&lt;/font&gt;" style="rounded=0;whiteSpace=wrap;html=1;strokeWidth=5;fillColor=#f8cecc;strokeColor=#23A9B8;" vertex="1" parent="1">
          <mxGeometry x="370" y="1390" width="210" height="60" as="geometry" />
        </mxCell>
        <mxCell id="sQVnSLR_GBX4JWcvfMMG-30" value="" style="rounded=0;whiteSpace=wrap;html=1;strokeWidth=5;fillColor=#f8cecc;strokeColor=#23A9B8;" vertex="1" parent="1">
          <mxGeometry x="580" y="1390" width="210" height="60" as="geometry" />
        </mxCell>
        <mxCell id="sQVnSLR_GBX4JWcvfMMG-31" value="&lt;font style=&quot;font-size: 25px&quot;&gt;L&lt;/font&gt;" style="rounded=0;whiteSpace=wrap;html=1;strokeWidth=5;fillColor=#f8cecc;strokeColor=#23A9B8;" vertex="1" parent="1">
          <mxGeometry x="370" y="1450" width="210" height="60" as="geometry" />
        </mxCell>
        <mxCell id="sQVnSLR_GBX4JWcvfMMG-32" value="" style="rounded=0;whiteSpace=wrap;html=1;strokeWidth=5;fillColor=#f8cecc;strokeColor=#23A9B8;" vertex="1" parent="1">
          <mxGeometry x="580" y="1450" width="210" height="60" as="geometry" />
        </mxCell>
        <mxCell id="sQVnSLR_GBX4JWcvfMMG-33" value="&lt;font style=&quot;font-size: 25px&quot;&gt;M&lt;/font&gt;" style="rounded=0;whiteSpace=wrap;html=1;strokeWidth=5;fillColor=#f8cecc;strokeColor=#23A9B8;" vertex="1" parent="1">
          <mxGeometry x="370" y="1510" width="210" height="60" as="geometry" />
        </mxCell>
        <mxCell id="sQVnSLR_GBX4JWcvfMMG-34" value="" style="rounded=0;whiteSpace=wrap;html=1;strokeWidth=5;fillColor=#f8cecc;strokeColor=#23A9B8;" vertex="1" parent="1">
          <mxGeometry x="580" y="1510" width="210" height="60" as="geometry" />
        </mxCell>
        <mxCell id="sQVnSLR_GBX4JWcvfMMG-35" value="&lt;span style=&quot;font-size: 25px&quot;&gt;O&lt;/span&gt;" style="rounded=0;whiteSpace=wrap;html=1;strokeWidth=5;fillColor=#f8cecc;strokeColor=#23A9B8;" vertex="1" parent="1">
          <mxGeometry x="370" y="1570" width="210" height="60" as="geometry" />
        </mxCell>
        <mxCell id="sQVnSLR_GBX4JWcvfMMG-36" value="" style="rounded=0;whiteSpace=wrap;html=1;strokeWidth=5;fillColor=#f8cecc;strokeColor=#23A9B8;" vertex="1" parent="1">
          <mxGeometry x="580" y="1570" width="210" height="60" as="geometry" />
        </mxCell>
        <mxCell id="sQVnSLR_GBX4JWcvfMMG-37" value="&lt;font style=&quot;font-size: 25px&quot;&gt;P&lt;/font&gt;" style="rounded=0;whiteSpace=wrap;html=1;strokeWidth=5;fillColor=#f8cecc;strokeColor=#23A9B8;" vertex="1" parent="1">
          <mxGeometry x="370" y="1630" width="210" height="60" as="geometry" />
        </mxCell>
        <mxCell id="sQVnSLR_GBX4JWcvfMMG-38" value="" style="rounded=0;whiteSpace=wrap;html=1;strokeWidth=5;fillColor=#f8cecc;strokeColor=#23A9B8;" vertex="1" parent="1">
          <mxGeometry x="580" y="1630" width="210" height="60" as="geometry" />
        </mxCell>
        <mxCell id="sQVnSLR_GBX4JWcvfMMG-39" value="&lt;font style=&quot;font-size: 25px&quot;&gt;R&lt;/font&gt;" style="rounded=0;whiteSpace=wrap;html=1;strokeWidth=5;fillColor=#f8cecc;strokeColor=#23A9B8;" vertex="1" parent="1">
          <mxGeometry x="370" y="1690" width="210" height="60" as="geometry" />
        </mxCell>
        <mxCell id="sQVnSLR_GBX4JWcvfMMG-40" value="" style="rounded=0;whiteSpace=wrap;html=1;strokeWidth=5;fillColor=#f8cecc;strokeColor=#23A9B8;" vertex="1" parent="1">
          <mxGeometry x="580" y="1690" width="210" height="60" as="geometry" />
        </mxCell>
        <mxCell id="sQVnSLR_GBX4JWcvfMMG-41" value="&lt;font style=&quot;font-size: 25px&quot;&gt;T&lt;/font&gt;" style="rounded=0;whiteSpace=wrap;html=1;strokeWidth=5;fillColor=#f8cecc;strokeColor=#23A9B8;" vertex="1" parent="1">
          <mxGeometry x="370" y="1750" width="210" height="60" as="geometry" />
        </mxCell>
        <mxCell id="sQVnSLR_GBX4JWcvfMMG-42" value="" style="rounded=0;whiteSpace=wrap;html=1;strokeWidth=5;fillColor=#f8cecc;strokeColor=#23A9B8;" vertex="1" parent="1">
          <mxGeometry x="580" y="1750" width="210" height="60" as="geometry" />
        </mxCell>
        <mxCell id="sQVnSLR_GBX4JWcvfMMG-43" value="&lt;font style=&quot;font-size: 25px&quot;&gt;U&lt;/font&gt;" style="rounded=0;whiteSpace=wrap;html=1;strokeWidth=5;fillColor=#f8cecc;strokeColor=#23A9B8;" vertex="1" parent="1">
          <mxGeometry x="370" y="1810" width="210" height="60" as="geometry" />
        </mxCell>
        <mxCell id="sQVnSLR_GBX4JWcvfMMG-44" value="" style="rounded=0;whiteSpace=wrap;html=1;strokeWidth=5;fillColor=#f8cecc;strokeColor=#23A9B8;" vertex="1" parent="1">
          <mxGeometry x="580" y="1810" width="210" height="60" as="geometry" />
        </mxCell>
        <mxCell id="sQVnSLR_GBX4JWcvfMMG-45" value="&lt;span style=&quot;font-size: 25px&quot;&gt;Ilmu Komputer&lt;/span&gt;" style="rounded=0;whiteSpace=wrap;html=1;strokeWidth=5;fillColor=#f8cecc;strokeColor=#23A9B8;" vertex="1" parent="1">
          <mxGeometry x="480" y="1120" width="210" height="60" as="geometry" />
        </mxCell>
        <mxCell id="sQVnSLR_GBX4JWcvfMMG-46" value="&lt;span style=&quot;font-size: 25px&quot;&gt;1&lt;/span&gt;" style="rounded=0;whiteSpace=wrap;html=1;strokeWidth=5;fillColor=#f8cecc;strokeColor=#23A9B8;" vertex="1" parent="1">
          <mxGeometry x="580" y="1330" width="210" height="60" as="geometry" />
        </mxCell>
        <mxCell id="sQVnSLR_GBX4JWcvfMMG-47" value="&lt;span style=&quot;font-size: 25px&quot;&gt;1&lt;/span&gt;" style="rounded=0;whiteSpace=wrap;html=1;strokeWidth=5;fillColor=#f8cecc;strokeColor=#23A9B8;" vertex="1" parent="1">
          <mxGeometry x="580" y="1390" width="210" height="60" as="geometry" />
        </mxCell>
        <mxCell id="sQVnSLR_GBX4JWcvfMMG-48" value="&lt;span style=&quot;font-size: 25px&quot;&gt;1&lt;/span&gt;" style="rounded=0;whiteSpace=wrap;html=1;strokeWidth=5;fillColor=#f8cecc;strokeColor=#23A9B8;" vertex="1" parent="1">
          <mxGeometry x="580" y="1450" width="210" height="60" as="geometry" />
        </mxCell>
        <mxCell id="sQVnSLR_GBX4JWcvfMMG-49" value="&lt;span style=&quot;font-size: 25px&quot;&gt;1&lt;/span&gt;" style="rounded=0;whiteSpace=wrap;html=1;strokeWidth=5;fillColor=#f8cecc;strokeColor=#23A9B8;" vertex="1" parent="1">
          <mxGeometry x="580" y="1570" width="210" height="60" as="geometry" />
        </mxCell>
        <mxCell id="sQVnSLR_GBX4JWcvfMMG-50" value="&lt;span style=&quot;font-size: 25px&quot;&gt;1&lt;/span&gt;" style="rounded=0;whiteSpace=wrap;html=1;strokeWidth=5;fillColor=#f8cecc;strokeColor=#23A9B8;" vertex="1" parent="1">
          <mxGeometry x="580" y="1630" width="210" height="60" as="geometry" />
        </mxCell>
        <mxCell id="sQVnSLR_GBX4JWcvfMMG-51" value="&lt;span style=&quot;font-size: 25px&quot;&gt;1&lt;/span&gt;" style="rounded=0;whiteSpace=wrap;html=1;strokeWidth=5;fillColor=#f8cecc;strokeColor=#23A9B8;" vertex="1" parent="1">
          <mxGeometry x="580" y="1690" width="210" height="60" as="geometry" />
        </mxCell>
        <mxCell id="sQVnSLR_GBX4JWcvfMMG-52" value="&lt;span style=&quot;font-size: 25px&quot;&gt;1&lt;/span&gt;" style="rounded=0;whiteSpace=wrap;html=1;strokeWidth=5;fillColor=#f8cecc;strokeColor=#23A9B8;" vertex="1" parent="1">
          <mxGeometry x="580" y="1750" width="210" height="60" as="geometry" />
        </mxCell>
        <mxCell id="sQVnSLR_GBX4JWcvfMMG-53" value="&lt;span style=&quot;font-size: 25px&quot;&gt;2&lt;/span&gt;" style="rounded=0;whiteSpace=wrap;html=1;strokeWidth=5;fillColor=#f8cecc;strokeColor=#23A9B8;" vertex="1" parent="1">
          <mxGeometry x="580" y="1510" width="210" height="60" as="geometry" />
        </mxCell>
        <mxCell id="sQVnSLR_GBX4JWcvfMMG-54" value="&lt;span style=&quot;font-size: 25px&quot;&gt;2&lt;/span&gt;" style="rounded=0;whiteSpace=wrap;html=1;strokeWidth=5;fillColor=#f8cecc;strokeColor=#23A9B8;" vertex="1" parent="1">
          <mxGeometry x="580" y="1810" width="210" height="60" as="geometry" />
        </mxCell>
        <mxCell id="sQVnSLR_GBX4JWcvfMMG-55" value="&lt;font style=&quot;font-size: 25px&quot;&gt;Huruf&lt;/font&gt;" style="rounded=0;whiteSpace=wrap;html=1;strokeWidth=5;fillColor=#f8cecc;strokeColor=#23A9B8;" vertex="1" parent="1">
          <mxGeometry x="1110" y="1220" width="210" height="60" as="geometry" />
        </mxCell>
        <mxCell id="sQVnSLR_GBX4JWcvfMMG-56" value="&lt;span style=&quot;font-size: 25px&quot;&gt;Frekuensi&lt;/span&gt;" style="rounded=0;whiteSpace=wrap;html=1;strokeWidth=5;fillColor=#f8cecc;strokeColor=#23A9B8;" vertex="1" parent="1">
          <mxGeometry x="1320" y="1220" width="210" height="60" as="geometry" />
        </mxCell>
        <mxCell id="sQVnSLR_GBX4JWcvfMMG-57" value="&lt;font style=&quot;font-size: 25px&quot;&gt;E&lt;/font&gt;" style="rounded=0;whiteSpace=wrap;html=1;strokeWidth=5;fillColor=#f8cecc;strokeColor=#23A9B8;" vertex="1" parent="1">
          <mxGeometry x="1110" y="1280" width="210" height="60" as="geometry" />
        </mxCell>
        <mxCell id="sQVnSLR_GBX4JWcvfMMG-58" value="&lt;span style=&quot;font-size: 25px&quot;&gt;1&lt;/span&gt;" style="rounded=0;whiteSpace=wrap;html=1;strokeWidth=5;fillColor=#f8cecc;strokeColor=#23A9B8;" vertex="1" parent="1">
          <mxGeometry x="1320" y="1280" width="210" height="60" as="geometry" />
        </mxCell>
        <mxCell id="sQVnSLR_GBX4JWcvfMMG-59" value="&lt;font style=&quot;font-size: 25px&quot;&gt;I&lt;/font&gt;" style="rounded=0;whiteSpace=wrap;html=1;strokeWidth=5;fillColor=#f8cecc;strokeColor=#23A9B8;" vertex="1" parent="1">
          <mxGeometry x="1110" y="1340" width="210" height="60" as="geometry" />
        </mxCell>
        <mxCell id="sQVnSLR_GBX4JWcvfMMG-60" value="&#xa;&#xa;&lt;span style=&quot;color: rgb(0, 0, 0); font-family: helvetica; font-size: 25px; font-style: normal; font-weight: 400; letter-spacing: normal; text-align: center; text-indent: 0px; text-transform: none; word-spacing: 0px; background-color: rgb(248, 249, 250); display: inline; float: none;&quot;&gt;1&lt;/span&gt;&#xa;&#xa;" style="rounded=0;whiteSpace=wrap;html=1;strokeWidth=5;fillColor=#f8cecc;strokeColor=#23A9B8;" vertex="1" parent="1">
          <mxGeometry x="1320" y="1340" width="210" height="60" as="geometry" />
        </mxCell>
        <mxCell id="sQVnSLR_GBX4JWcvfMMG-61" value="&lt;font style=&quot;font-size: 25px&quot;&gt;K&lt;/font&gt;" style="rounded=0;whiteSpace=wrap;html=1;strokeWidth=5;fillColor=#f8cecc;strokeColor=#23A9B8;" vertex="1" parent="1">
          <mxGeometry x="1110" y="1400" width="210" height="60" as="geometry" />
        </mxCell>
        <mxCell id="sQVnSLR_GBX4JWcvfMMG-62" value="" style="rounded=0;whiteSpace=wrap;html=1;strokeWidth=5;fillColor=#f8cecc;strokeColor=#23A9B8;" vertex="1" parent="1">
          <mxGeometry x="1320" y="1400" width="210" height="60" as="geometry" />
        </mxCell>
        <mxCell id="sQVnSLR_GBX4JWcvfMMG-63" value="&lt;font style=&quot;font-size: 25px&quot;&gt;L&lt;/font&gt;" style="rounded=0;whiteSpace=wrap;html=1;strokeWidth=5;fillColor=#f8cecc;strokeColor=#23A9B8;" vertex="1" parent="1">
          <mxGeometry x="1110" y="1460" width="210" height="60" as="geometry" />
        </mxCell>
        <mxCell id="sQVnSLR_GBX4JWcvfMMG-64" value="" style="rounded=0;whiteSpace=wrap;html=1;strokeWidth=5;fillColor=#f8cecc;strokeColor=#23A9B8;" vertex="1" parent="1">
          <mxGeometry x="1320" y="1460" width="210" height="60" as="geometry" />
        </mxCell>
        <mxCell id="sQVnSLR_GBX4JWcvfMMG-66" value="" style="rounded=0;whiteSpace=wrap;html=1;strokeWidth=5;fillColor=#f8cecc;strokeColor=#23A9B8;" vertex="1" parent="1">
          <mxGeometry x="1320" y="1520" width="210" height="60" as="geometry" />
        </mxCell>
        <mxCell id="sQVnSLR_GBX4JWcvfMMG-67" value="&lt;span style=&quot;font-size: 25px&quot;&gt;O&lt;/span&gt;" style="rounded=0;whiteSpace=wrap;html=1;strokeWidth=5;fillColor=#f8cecc;strokeColor=#23A9B8;" vertex="1" parent="1">
          <mxGeometry x="1110" y="1520" width="210" height="60" as="geometry" />
        </mxCell>
        <mxCell id="sQVnSLR_GBX4JWcvfMMG-68" value="" style="rounded=0;whiteSpace=wrap;html=1;strokeWidth=5;fillColor=#f8cecc;strokeColor=#23A9B8;" vertex="1" parent="1">
          <mxGeometry x="1320" y="1580" width="210" height="60" as="geometry" />
        </mxCell>
        <mxCell id="sQVnSLR_GBX4JWcvfMMG-69" value="&lt;font style=&quot;font-size: 25px&quot;&gt;P&lt;/font&gt;" style="rounded=0;whiteSpace=wrap;html=1;strokeWidth=5;fillColor=#f8cecc;strokeColor=#23A9B8;" vertex="1" parent="1">
          <mxGeometry x="1110" y="1580" width="210" height="60" as="geometry" />
        </mxCell>
        <mxCell id="sQVnSLR_GBX4JWcvfMMG-70" value="" style="rounded=0;whiteSpace=wrap;html=1;strokeWidth=5;fillColor=#f8cecc;strokeColor=#23A9B8;" vertex="1" parent="1">
          <mxGeometry x="1320" y="1640" width="210" height="60" as="geometry" />
        </mxCell>
        <mxCell id="sQVnSLR_GBX4JWcvfMMG-71" value="&lt;font style=&quot;font-size: 25px&quot;&gt;R&lt;/font&gt;" style="rounded=0;whiteSpace=wrap;html=1;strokeWidth=5;fillColor=#f8cecc;strokeColor=#23A9B8;" vertex="1" parent="1">
          <mxGeometry x="1110" y="1640" width="210" height="60" as="geometry" />
        </mxCell>
        <mxCell id="sQVnSLR_GBX4JWcvfMMG-72" value="" style="rounded=0;whiteSpace=wrap;html=1;strokeWidth=5;fillColor=#f8cecc;strokeColor=#23A9B8;" vertex="1" parent="1">
          <mxGeometry x="1320" y="1700" width="210" height="60" as="geometry" />
        </mxCell>
        <mxCell id="sQVnSLR_GBX4JWcvfMMG-73" value="&lt;font style=&quot;font-size: 25px&quot;&gt;T&lt;/font&gt;" style="rounded=0;whiteSpace=wrap;html=1;strokeWidth=5;fillColor=#f8cecc;strokeColor=#23A9B8;" vertex="1" parent="1">
          <mxGeometry x="1110" y="1700" width="210" height="60" as="geometry" />
        </mxCell>
        <mxCell id="sQVnSLR_GBX4JWcvfMMG-74" value="" style="rounded=0;whiteSpace=wrap;html=1;strokeWidth=5;fillColor=#f8cecc;strokeColor=#23A9B8;" vertex="1" parent="1">
          <mxGeometry x="1320" y="1760" width="210" height="60" as="geometry" />
        </mxCell>
        <mxCell id="sQVnSLR_GBX4JWcvfMMG-75" value="&lt;font style=&quot;font-size: 25px&quot;&gt;U&lt;/font&gt;" style="rounded=0;whiteSpace=wrap;html=1;strokeWidth=5;fillColor=#f8cecc;strokeColor=#23A9B8;" vertex="1" parent="1">
          <mxGeometry x="1110" y="1820" width="210" height="60" as="geometry" />
        </mxCell>
        <mxCell id="sQVnSLR_GBX4JWcvfMMG-76" value="" style="rounded=0;whiteSpace=wrap;html=1;strokeWidth=5;fillColor=#f8cecc;strokeColor=#23A9B8;" vertex="1" parent="1">
          <mxGeometry x="1320" y="1820" width="210" height="60" as="geometry" />
        </mxCell>
        <mxCell id="sQVnSLR_GBX4JWcvfMMG-77" value="&lt;span style=&quot;font-size: 25px&quot;&gt;1&lt;/span&gt;" style="rounded=0;whiteSpace=wrap;html=1;strokeWidth=5;fillColor=#f8cecc;strokeColor=#23A9B8;" vertex="1" parent="1">
          <mxGeometry x="1320" y="1340" width="210" height="60" as="geometry" />
        </mxCell>
        <mxCell id="sQVnSLR_GBX4JWcvfMMG-78" value="&lt;span style=&quot;font-size: 25px&quot;&gt;1&lt;/span&gt;" style="rounded=0;whiteSpace=wrap;html=1;strokeWidth=5;fillColor=#f8cecc;strokeColor=#23A9B8;" vertex="1" parent="1">
          <mxGeometry x="1320" y="1400" width="210" height="60" as="geometry" />
        </mxCell>
        <mxCell id="sQVnSLR_GBX4JWcvfMMG-79" value="&lt;span style=&quot;font-size: 25px&quot;&gt;1&lt;/span&gt;" style="rounded=0;whiteSpace=wrap;html=1;strokeWidth=5;fillColor=#f8cecc;strokeColor=#23A9B8;" vertex="1" parent="1">
          <mxGeometry x="1320" y="1460" width="210" height="60" as="geometry" />
        </mxCell>
        <mxCell id="sQVnSLR_GBX4JWcvfMMG-80" value="&lt;span style=&quot;font-size: 25px&quot;&gt;1&lt;/span&gt;" style="rounded=0;whiteSpace=wrap;html=1;strokeWidth=5;fillColor=#f8cecc;strokeColor=#23A9B8;" vertex="1" parent="1">
          <mxGeometry x="1320" y="1580" width="210" height="60" as="geometry" />
        </mxCell>
        <mxCell id="sQVnSLR_GBX4JWcvfMMG-81" value="&lt;span style=&quot;font-size: 25px&quot;&gt;1&lt;/span&gt;" style="rounded=0;whiteSpace=wrap;html=1;strokeWidth=5;fillColor=#f8cecc;strokeColor=#23A9B8;" vertex="1" parent="1">
          <mxGeometry x="1320" y="1640" width="210" height="60" as="geometry" />
        </mxCell>
        <mxCell id="sQVnSLR_GBX4JWcvfMMG-82" value="&lt;span style=&quot;font-size: 25px&quot;&gt;1&lt;/span&gt;" style="rounded=0;whiteSpace=wrap;html=1;strokeWidth=5;fillColor=#f8cecc;strokeColor=#23A9B8;" vertex="1" parent="1">
          <mxGeometry x="1320" y="1700" width="210" height="60" as="geometry" />
        </mxCell>
        <mxCell id="sQVnSLR_GBX4JWcvfMMG-83" value="&lt;span style=&quot;font-size: 25px&quot;&gt;1&lt;/span&gt;" style="rounded=0;whiteSpace=wrap;html=1;strokeWidth=5;fillColor=#f8cecc;strokeColor=#23A9B8;" vertex="1" parent="1">
          <mxGeometry x="1320" y="1760" width="210" height="60" as="geometry" />
        </mxCell>
        <mxCell id="sQVnSLR_GBX4JWcvfMMG-84" value="&lt;span style=&quot;font-size: 25px&quot;&gt;2&lt;/span&gt;" style="rounded=0;whiteSpace=wrap;html=1;strokeWidth=5;fillColor=#f8cecc;strokeColor=#23A9B8;" vertex="1" parent="1">
          <mxGeometry x="1320" y="1760" width="210" height="60" as="geometry" />
        </mxCell>
        <mxCell id="sQVnSLR_GBX4JWcvfMMG-85" value="&lt;span style=&quot;font-size: 25px&quot;&gt;2&lt;/span&gt;" style="rounded=0;whiteSpace=wrap;html=1;strokeWidth=5;fillColor=#f8cecc;strokeColor=#23A9B8;" vertex="1" parent="1">
          <mxGeometry x="1320" y="1820" width="210" height="60" as="geometry" />
        </mxCell>
        <mxCell id="sQVnSLR_GBX4JWcvfMMG-86" value="&lt;font style=&quot;font-size: 25px&quot;&gt;M&lt;/font&gt;" style="rounded=0;whiteSpace=wrap;html=1;strokeWidth=5;fillColor=#f8cecc;strokeColor=#23A9B8;" vertex="1" parent="1">
          <mxGeometry x="1110" y="1760" width="210" height="60" as="geometry" />
        </mxCell>
        <mxCell id="sQVnSLR_GBX4JWcvfMMG-87" value="&lt;font style=&quot;font-size: 25px&quot;&gt;1&lt;/font&gt;" style="rounded=0;whiteSpace=wrap;html=1;strokeWidth=5;fillColor=#f8cecc;strokeColor=#23A9B8;" vertex="1" parent="1">
          <mxGeometry x="1320" y="1520" width="210" height="60" as="geometry" />
        </mxCell>
      </root>
    </mxGraphModel>
  </diagram>
  <diagram id="wEmR2FyfpjaTZQlFzQhh" name="Page-2">
    <mxGraphModel dx="1552" dy="811" grid="1" gridSize="10" guides="1" tooltips="1" connect="1" arrows="1" fold="1" page="1" pageScale="1" pageWidth="1920" pageHeight="1200" math="0" shadow="0">
      <root>
        <mxCell id="oNAC4CXHgwPkrz5FuR1e-0" />
        <mxCell id="oNAC4CXHgwPkrz5FuR1e-1" parent="oNAC4CXHgwPkrz5FuR1e-0" />
      </root>
    </mxGraphModel>
  </diagram>
</mxfile>
